<svg height="512pt" viewBox="-53 0 512 512.0108" width="512pt" xmlns="http://www.w3.org/2000/svg"><path d="m373.34375 128.011719h-170.667969c-17.640625 0-32 14.355469-32 32 0 17.640625 14.359375 32 32 32h170.667969c17.644531 0 32-14.359375 32-32 0-17.644531-14.355469-32-32-32zm0 0" fill="#90a4ae"/><path d="m266.65625 512.011719c-5.398438 0-10.046875-4.097657-10.582031-9.601563l-20.375-203.734375h-172.710938l-20.375 203.734375c-.578125 5.847656-5.84375 10.007813-11.667969 9.558594-5.847656-.578125-10.15625-5.804688-9.539062-11.671875l21.335938-213.332031c.53125-5.460938 5.117187-9.621094 10.601562-9.621094h192c5.484375 0 10.070312 4.160156 10.601562 9.601562l21.335938 213.332032c.597656 5.867187-3.691406 11.09375-9.539062 11.667968-.359376.042969-.722657.066407-1.085938.066407zm0 0"/><path d="m256.011719 405.34375h-213.335938c-5.886719 0-10.664062-4.777344-10.664062-10.667969 0-5.886719 4.777343-10.664062 10.664062-10.664062h213.335938c5.886719 0 10.664062 4.777343 10.664062 10.664062 0 5.890625-4.777343 10.667969-10.664062 10.667969zm0 0"/><path d="m53.363281 298.675781c-.425781 0-.832031-.019531-1.257812-.0625-5.84375-.683593-10.046875-5.972656-9.363281-11.820312 6.441406-55.359375-13.121094-200.039063-41.964844-272.148438-2.195313-5.460937.449218-11.667969 5.933594-13.867187 5.4375-2.21875 11.667968.472656 13.84375 5.953125 30.441406 76.011719 50.21875 223.59375 43.390624 282.519531-.640624 5.417969-5.246093 9.425781-10.582031 9.425781zm0 0"/><path d="m181.34375 298.675781c-2.347656 0-4.691406-.765625-6.675781-2.324219-4.609375-3.691406-5.335938-10.390624-1.664063-14.996093l85.332032-106.667969c3.691406-4.605469 10.410156-5.332031 14.996093-1.664062 4.609375 3.691406 5.335938 10.390624 1.664063 14.996093l-85.332032 106.667969c-2.089843 2.625-5.207031 3.988281-8.320312 3.988281zm0 0"/><path d="m373.34375 192.011719h-170.667969c-17.640625 0-32-14.359375-32-32 0-17.644531 14.359375-32 32-32h170.667969c17.644531 0 32 14.355469 32 32 0 17.640625-14.355469 32-32 32zm-170.667969-42.667969c-5.867187 0-10.664062 4.777344-10.664062 10.667969 0 5.886719 4.796875 10.664062 10.664062 10.664062h170.667969c5.867188 0 10.667969-4.777343 10.667969-10.664062 0-5.890625-4.800781-10.667969-10.667969-10.667969zm0 0"/></svg>